<?xml version="1.0" encoding="UTF-8" standalone="no"?>
<!-- Created with Inkscape by Blessing Tsekpoe Eyram (https://github.com/tsekpoe) -->

<svg
   width="2560"
   height="1440"
   viewBox="0 0 2560 1440"
   version="1.1"
   id="svg1"
   xml:space="preserve"
   inkscape:export-filename="bg.svg"
   inkscape:export-xdpi="96"
   inkscape:export-ydpi="96"
   xmlns:inkscape="http://www.inkscape.org/namespaces/inkscape"
   xmlns:sodipodi="http://sodipodi.sourceforge.net/DTD/sodipodi-0.dtd"
   xmlns="http://www.w3.org/2000/svg"
   xmlns:svg="http://www.w3.org/2000/svg"><sodipodi:namedview
     id="namedview1"
     pagecolor="#505050"
     bordercolor="#eeeeee"
     borderopacity="1"
     inkscape:showpageshadow="0"
     inkscape:pageopacity="0"
     inkscape:pagecheckerboard="0"
     inkscape:deskcolor="#505050"
     inkscape:document-units="px"
     showgrid="false"><inkscape:grid
       id="grid1"
       units="px"
       originx="0"
       originy="0"
       spacingx="1"
       spacingy="1"
       empcolor="#0099e5"
       empopacity="0.30196078"
       color="#0099e5"
       opacity="0.14901961"
       empspacing="5"
       dotted="false"
       gridanglex="30"
       gridanglez="30"
       visible="false" /></sodipodi:namedview><defs
     id="defs1" /><g
     inkscape:label="Layer 1"
     id="layer1"><circle
       style="fill:none;stroke:#f384c5;stroke-width:5;stroke-dasharray:none;stroke-opacity:0.996078"
       id="path1"
       cx="376.38266"
       cy="990.16815"
       r="246.33949" /><circle
       style="fill:none;stroke:#f384c5;stroke-width:5;stroke-dasharray:none;stroke-opacity:0.996078"
       id="path1-9"
       cx="2119.3425"
       cy="748.06219"
       r="121.09996" /><path
       id="path1-9-4"
       style="fill:#f08a8a;fill-opacity:1;stroke:none;stroke-width:2.52408;stroke-dasharray:none;stroke-opacity:0.996078"
       d="m 1808.8242,327.77016 a 30.566601,30.566601 0 0 0 -30.5679,30.56622 30.566601,30.566601 0 0 0 30.5679,30.56622 30.566601,30.566601 0 0 0 30.5662,-30.56622 30.566601,30.566601 0 0 0 -30.5662,-30.56622 z" /><path
       id="path1-9-4-3"
       style="fill:#f08a8a;fill-opacity:1;stroke:none;stroke-width:2.52408;stroke-dasharray:none;stroke-opacity:0.996078"
       d="m 820.28577,-27.554191 a 30.566601,30.566601 0 0 0 -30.5679,30.5662204 30.566601,30.566601 0 0 0 30.5679,30.5662196 30.566601,30.566601 0 0 0 30.5662,-30.5662196 30.566601,30.566601 0 0 0 -30.5662,-30.5662204 z" /><path
       id="path1-9-4-3-3"
       style="fill:#f08a8a;fill-opacity:1;stroke:none;stroke-width:2.52408;stroke-dasharray:none;stroke-opacity:0.996078"
       d="m 232.99114,511.41909 a 30.566601,30.566601 0 0 0 -30.5679,30.56622 30.566601,30.566601 0 0 0 30.5679,30.56622 30.566601,30.566601 0 0 0 30.5662,-30.56622 30.566601,30.566601 0 0 0 -30.5662,-30.56622 z" /><path
       id="path1-9-4-3-3-8"
       style="fill:#f08a8a;fill-opacity:1;stroke:none;stroke-width:2.52408;stroke-dasharray:none;stroke-opacity:0.996078"
       d="m 2.3168956,1404.2324 a 30.566601,30.566601 0 0 0 -30.5678996,30.5662 30.566601,30.566601 0 0 0 30.5678996,30.5662 30.566601,30.566601 0 0 0 30.5662004,-30.5662 30.566601,30.566601 0 0 0 -30.5662004,-30.5662 z" /><path
       id="path1-9-4-3-3-82"
       style="fill:#f08a8a;fill-opacity:1;stroke:none;stroke-width:2.52408;stroke-dasharray:none;stroke-opacity:0.996078"
       d="m 2403.3965,1412.5961 a 30.566601,30.566601 0 0 0 -30.5679,30.5662 30.566601,30.566601 0 0 0 30.5679,30.5662 30.566601,30.566601 0 0 0 30.5662,-30.5662 30.566601,30.566601 0 0 0 -30.5662,-30.5662 z" /><circle
       style="fill:none;stroke:#f384c5;stroke-width:5;stroke-dasharray:none;stroke-opacity:0.996078"
       id="path1-9-7"
       cx="1229.2455"
       cy="1640.2828"
       r="498.9631" /><circle
       style="fill:none;stroke:#f384c5;stroke-width:5.09581;stroke-dasharray:none;stroke-opacity:0.996078"
       id="circle1"
       cx="2592.3499"
       cy="-161.34665"
       r="770.48901" /><text
       xml:space="preserve"
       style="font-style:normal;font-variant:normal;font-weight:normal;font-stretch:normal;font-size:178.513px;font-family:Bakery;-inkscape-font-specification:Bakery;fill:#f08a8a;fill-opacity:1;stroke:none;stroke-width:74.3804;stroke-dasharray:none;stroke-opacity:0.996078"
       x="584.31061"
       y="807.42358"
       id="text2"
       transform="matrix(0.98196591,-0.31882965,0.29911515,0.92124708,0,0)"><tspan
         sodipodi:role="line"
         x="584.31061"
         y="807.42358"
         style="font-style:normal;font-variant:normal;font-weight:normal;font-stretch:normal;font-family:Bakery;-inkscape-font-specification:Bakery;stroke-width:74.3804"
         id="tspan3">+</tspan></text><text
       xml:space="preserve"
       style="font-style:normal;font-variant:normal;font-weight:normal;font-stretch:normal;font-size:185.404px;font-family:Bakery;-inkscape-font-specification:Bakery;fill:#f08a8a;fill-opacity:1;stroke:none;stroke-width:77.2517;stroke-dasharray:none;stroke-opacity:0.996078"
       x="889.43738"
       y="1106.0701"
       id="text2-2"
       transform="matrix(0.90856039,0.42895911,-0.40517658,0.90934607,0,0)"><tspan
         sodipodi:role="line"
         x="889.43738"
         y="1106.0701"
         style="font-style:normal;font-variant:normal;font-weight:normal;font-stretch:normal;font-family:Bakery;-inkscape-font-specification:Bakery;stroke-width:77.2517"
         id="tspan3-1">+</tspan><tspan
         sodipodi:role="line"
         x="889.43738"
         y="1337.8251"
         style="font-style:normal;font-variant:normal;font-weight:normal;font-stretch:normal;font-family:Bakery;-inkscape-font-specification:Bakery;stroke-width:77.2517"
         id="tspan4-9" /></text><text
       xml:space="preserve"
       style="font-style:normal;font-variant:normal;font-weight:normal;font-stretch:normal;font-size:191.055px;font-family:Bakery;-inkscape-font-specification:Bakery;fill:#f08a8a;fill-opacity:1;stroke:none;stroke-width:79.6062;stroke-dasharray:none;stroke-opacity:0.996078"
       x="1549.7295"
       y="1686.2788"
       id="text2-2-1"
       transform="matrix(0.99284492,-0.14719964,0.1685697,0.98221443,0,0)"><tspan
         sodipodi:role="line"
         x="1549.7295"
         y="1686.2788"
         style="font-style:normal;font-variant:normal;font-weight:normal;font-stretch:normal;font-family:Bakery;-inkscape-font-specification:Bakery;stroke-width:79.6062"
         id="tspan3-1-3">+</tspan><tspan
         sodipodi:role="line"
         x="1549.7295"
         y="1925.0975"
         style="font-style:normal;font-variant:normal;font-weight:normal;font-stretch:normal;font-family:Bakery;-inkscape-font-specification:Bakery;stroke-width:79.6062"
         id="tspan4-9-2" /></text></g>
</svg>
